<?xml version="1.0" standalone="no"?>
<!DOCTYPE svg PUBLIC "-//W3C//DTD SVG 20010904//EN"
 "http://www.w3.org/TR/2001/REC-SVG-20010904/DTD/svg10.dtd">
<svg version="1.0" xmlns="http://www.w3.org/2000/svg"
 width="260.000000pt" height="260.000000pt" viewBox="0 0 260.000000 260.000000"
 preserveAspectRatio="xMidYMid meet">
<metadata>
Created by potrace 1.11, written by Peter Selinger 2001-2013
</metadata>
<g transform="translate(0.000000,260.000000) scale(0.100000,-0.100000)"
fill="#000000" stroke="none">
<path d="M1200 1973 c-113 -18 -273 -83 -355 -146 -127 -97 -225 -240 -271
-392 -25 -84 -25 -276 0 -365 43 -156 139 -296 270 -394 40 -31 135 -86 156
-91 3 -1 19 -7 35 -14 103 -44 309 -61 430 -36 117 24 178 49 275 110 166 105
276 261 325 460 23 91 10 287 -25 380 -4 11 -8 23 -9 27 -1 4 -16 34 -33 65
-99 184 -264 315 -470 374 -69 20 -259 32 -328 22z"/>
</g>
</svg>
